<svg xmlns="http://www.w3.org/2000/svg" xmlns:xlink="http://www.w3.org/1999/xlink" id="Layer_1" x="0" y="0" version="1.1" viewBox="0 0 888 269" xml:space="preserve" style="enable-background:new 0 0 888 269"><style type="text/css">.st0{fill:#ee2d2b}.st1{fill:#912525}.st2{fill:#922425}</style><g><path d="M194.5,252.1c-25,0-47.2-14.3-57.6-36.4c-10.9,20.8-32.6,34.3-56.5,34.3c-35.1,0-63.7-28.6-63.7-63.7 c0-13.5,4.2-26.4,12.1-37.3L129.3,18.7l0,0c0.5-0.7,3.2-3.8,7.2-3.8c3.9,0,6.7,3.2,7.2,3.8l0,0l100.8,130.3 c9,11.3,13.7,25,13.7,39.5C258.2,223.5,229.6,252.1,194.5,252.1z" class="st0"/><path d="M136.5,18.3c2.4,0,4.4,2.3,4.5,2.5l100.8,130.3c8.1,10.3,13,23.2,13,37.4c0,33.2-27,60.2-60.2,60.2 c-26.9,0-49.7-17.7-57.4-42c-8.3,23.2-30.6,39.9-56.7,39.9c-33.2,0-60.2-27-60.2-60.2c0-13.2,4.2-25.3,11.4-35.2L132.1,20.8 C132.2,20.7,134,18.3,136.5,18.3 M136.5,11.3c-4.8,0-8.5,3.2-10,5.3L26.1,146.8l-0.1,0.1l-0.1,0.1c-8.3,11.5-12.7,25.1-12.7,39.3 c0,37.1,30.1,67.2,67.2,67.2c23,0,44.1-11.8,56.4-30.6c4.5,7.5,10.4,14.1,17.6,19.5c11.7,8.7,25.5,13.3,40.1,13.3 c37.1,0,67.2-30.1,67.2-67.2c0-15.3-5-29.7-14.5-41.7L146.5,16.5l0,0C145.6,15.4,141.9,11.3,136.5,11.3L136.5,11.3z" class="st1"/></g><path d="M136.8,111.7c1.3-2.9,2.7-5.5,4.6-7.8c4.3-5.4,9.6-9,16.5-10.1c7-1,13.1,0.8,18.3,5.5c4.5,3.9,7,9,8.3,14.7	c0.9,3.6,1.2,7.3,1,11.1c-0.3,5.7-2.4,10.7-6.2,15.1c-3.7,4.3-8.3,7.4-13,10.4c-4.6,2.9-9.2,5.6-13.4,9.1c-2.1,1.7-4,3.5-5.9,5.3	c-3.3,3.2-6.3,6.5-8.8,10.3c-0.5,0.9-1,1.8-1.4,2.8c-0.6-1.2-1.2-2.5-1.9-3.6c-1.3-2-2.8-3.8-4.3-5.6c-4-4.6-8.6-8.5-13.6-11.8	c-3.2-2.1-6.5-4-9.8-6.1c-4.4-2.7-8.6-5.6-12.1-9.5c-3.6-3.9-6-8.4-6.7-13.8c-0.9-7,0.1-13.7,3-20.2c2.5-5.5,6.4-9.7,11.9-12.3	c3.6-1.7,7.3-2.3,11.3-1.9c6.6,0.7,11.8,3.8,16.1,8.6c2.3,2.5,4,5.3,5.4,8.4C136.3,110.7,136.5,111.1,136.8,111.7z" class="st2"/><g><path d="M331.6,143.4h-1.9c-0.9,0-2.1,0.2-3.6,0.5c-1.5,0.3-3.2,0.9-5.2,1.6c-0.8,0.3-1.8,0.6-2.8,0.9 s-2.1,0.5-3.1,0.7c-1.1,0.2-2.1,0.3-3.2,0.4c-1.1,0.1-2,0.2-2.9,0.2c-3.9,0-7.4-0.6-10.6-1.8c-3.2-1.2-5.9-2.9-8.1-5.2 c-2.2-2.3-3.9-5-5.2-8.2c-1.2-3.2-1.8-6.9-1.8-11c0-2.6,0.3-5.3,0.8-8c0.5-2.7,1.3-5.2,2.4-7.7c1.1-2.5,2.4-4.7,4.1-6.9 c1.6-2.1,3.5-4,5.7-5.6c2.2-1.6,4.6-2.8,7.4-3.7c2.7-0.9,5.8-1.3,9.1-1.3c1.4,0,2.9,0.1,4.4,0.3c1.5,0.2,2.9,0.5,4.4,0.9 c1.4,0.4,2.8,0.8,4.1,1.4c1.3,0.5,2.5,1.2,3.6,1.8l-0.2-3.9h4.5l-1,18.5h-2.9c-0.1-2.5-0.5-4.8-1.4-6.8c-0.9-2-2-3.6-3.5-5 c-1.5-1.4-3.2-2.4-5.2-3.1c-2-0.7-4.2-1-6.5-1c-2,0-3.9,0.3-5.8,0.9c-1.9,0.6-3.6,1.5-5.3,2.7c-1.6,1.2-3.1,2.6-4.5,4.2 c-1.4,1.7-2.5,3.5-3.5,5.6c-1,2.1-1.7,4.3-2.3,6.7c-0.5,2.4-0.8,5-0.8,7.7c0,3.6,0.5,6.8,1.5,9.8c1,3,2.4,5.5,4.1,7.7 s3.9,3.8,6.4,5c2.5,1.2,5.3,1.8,8.3,1.8c1.1,0,2.2-0.1,3.4-0.2c1.2-0.2,2.4-0.4,3.6-0.7c1.2-0.3,2.4-0.7,3.6-1.2 c1.2-0.5,2.3-1.1,3.4-1.8l0.9-17.7l-5.7,0.3l0.2-3.5h18.1l-0.2,2.6c-1,0-1.9,0.2-2.6,0.6c-0.7,0.4-1.3,0.9-1.7,1.5 c-0.4,0.6-0.8,1.3-1.1,2c-0.3,0.7-0.5,1.4-0.6,2.2c-0.1,0.7-0.2,1.4-0.3,2c0,0.6-0.1,1.1-0.1,1.5L331.6,143.4z" class="st2"/><path d="M369.8,110.1c-0.2-0.1-0.3-0.1-0.5-0.1c-0.1,0-0.3,0-0.4,0c-1.2,0-2.4,0.5-3.5,1.6c-1.1,1-2.2,2.4-3.3,4.1 c-1,1.7-2,3.7-2.9,6c-0.9,2.3-1.6,4.6-2.2,7c-0.6,2.4-1.1,4.9-1.5,7.3c-0.4,2.4-0.5,4.7-0.5,6.8c0,0.4,0,0.7,0,1c0,0.3,0,0.6,0,0.8 c0,0.3,0,0.5,0.1,0.8c0,0.3,0.1,0.5,0.1,0.9h-6.7c-0.1-0.6-0.1-1-0.1-1.2c0-0.7,0-1.5,0-2.3c0-0.9,0.1-1.9,0.1-3.2s0.2-2.9,0.4-4.8 c0.2-1.9,0.4-4.3,0.7-7.1c0.2-2.1,0.4-3.9,0.6-5.3c0.2-1.4,0.3-2.7,0.4-3.6s0.2-1.8,0.3-2.3c0.1-0.6,0.1-1.1,0.2-1.5 s0.1-0.8,0.1-1.1c0-0.3,0-0.7,0-1.1c0-0.5,0-0.9-0.1-1.3c-0.1-0.4-0.2-0.8-0.3-1.1c-0.2-0.3-0.4-0.6-0.7-0.8s-0.7-0.3-1.1-0.3 c-0.4,0-0.9,0.1-1.4,0.4c-0.5,0.3-1,0.7-1.6,1.3s-1.1,1.4-1.6,2.4c-0.5,1-0.9,2.2-1.3,3.6l-2.3-0.5c0.2-0.9,0.5-2.1,1-3.4 c0.5-1.3,1.2-2.6,2.1-3.8c0.9-1.2,1.9-2.2,3.1-3c1.2-0.8,2.6-1.2,4.2-1.2c1.1,0,2,0.2,2.8,0.6c0.8,0.4,1.4,0.9,1.8,1.6 c0.5,0.7,0.8,1.5,1,2.5c0.2,1,0.3,2.1,0.3,3.2c0,1.4-0.1,2.9-0.3,4.6c-0.2,1.6-0.5,3.4-0.9,5.2h0.2c1.2-3.5,2.4-6.4,3.6-8.7 c1.2-2.3,2.5-4.1,3.8-5.4c1.3-1.3,2.6-2.3,3.9-2.8c1.3-0.5,2.6-0.8,4-0.8c0.8,0,1.6,0.1,2.3,0.3c0.7,0.2,1.3,0.5,1.8,0.9 c0.5,0.4,0.9,0.9,1.2,1.5c0.3,0.6,0.4,1.2,0.4,1.9c0,0.5-0.1,0.9-0.3,1.4c-0.2,0.5-0.4,0.9-0.7,1.2c-0.3,0.4-0.7,0.6-1.2,0.9 c-0.5,0.2-1,0.3-1.6,0.3c-1,0-1.8-0.3-2.5-0.8C370.3,112.1,369.9,111.2,369.8,110.1z" class="st2"/><path d="M410.4,114.2c0,1.5-0.4,2.9-1.1,4.1c-0.7,1.2-1.7,2.3-2.9,3.2c-1.2,0.9-2.6,1.8-4.2,2.5 c-1.6,0.7-3.3,1.3-5,1.9c-1.8,0.5-3.6,1-5.4,1.3c-1.8,0.3-3.6,0.6-5.3,0.8c0,5.1,0.8,8.9,2.3,11.4c1.5,2.5,3.8,3.8,7,3.8 c1.2,0,2.4-0.2,3.6-0.6s2.4-1,3.5-1.8s2.2-1.8,3.3-3c1.1-1.2,2-2.7,2.9-4.4l2.6,1.5c-2.3,4.2-4.8,7.4-7.6,9.3c-2.8,2-6,3-9.7,3 c-2.6,0-4.8-0.4-6.7-1.3c-1.9-0.8-3.4-2-4.7-3.6c-1.2-1.5-2.2-3.4-2.7-5.5c-0.6-2.1-0.9-4.5-0.9-7.2c0-2.1,0.2-4.1,0.5-6.2 c0.4-2,0.9-4,1.6-5.8c0.7-1.8,1.6-3.5,2.7-5.1c1.1-1.6,2.4-2.9,3.8-4.1c1.5-1.1,3.1-2,4.9-2.7c1.8-0.6,3.9-1,6.1-1 c1.4,0,2.8,0.2,4.2,0.5c1.4,0.3,2.6,0.9,3.6,1.6c1.1,0.7,1.9,1.7,2.5,2.9C410.1,111,410.4,112.5,410.4,114.2z M398,107.7 c-1.9,0-3.5,0.5-4.8,1.5c-1.4,1-2.5,2.3-3.4,3.9c-0.9,1.6-1.6,3.5-2.1,5.6c-0.5,2.1-0.8,4.2-1,6.4c2.1-0.3,4.2-0.7,6.3-1.3 c2-0.6,3.9-1.4,5.5-2.3c1.6-0.9,2.9-2,3.9-3.3c1-1.3,1.5-2.7,1.5-4.2c0-0.9-0.1-1.7-0.4-2.4c-0.2-0.8-0.6-1.4-1.1-2s-1.1-1-1.8-1.3 C399.8,107.8,398.9,107.7,398,107.7z" class="st2"/><path d="M452.3,106.3c-0.4,3.3-0.9,6.6-1.3,10c-0.4,3.3-0.8,6.4-1.1,9.4c-0.3,2.9-0.6,5.5-0.8,7.8s-0.3,4-0.3,5.3 c0,0.5,0,1.1,0,1.6s0.1,1,0.3,1.4c0.2,0.4,0.4,0.8,0.7,1c0.3,0.3,0.7,0.4,1.3,0.4c0.4,0,0.9-0.1,1.4-0.4c0.5-0.3,1-0.7,1.6-1.3 c0.5-0.6,1-1.4,1.5-2.4c0.5-1,0.9-2.2,1.3-3.6l2.3,0.5c-0.2,0.9-0.5,2.1-1,3.4s-1.2,2.6-2.1,3.8c-0.9,1.2-1.9,2.2-3.2,3 c-1.2,0.8-2.7,1.2-4.3,1.2c-1.1,0-2-0.2-2.8-0.5c-0.8-0.4-1.4-0.8-1.9-1.5c-0.5-0.6-0.8-1.4-1-2.3c-0.2-0.9-0.3-1.9-0.3-3 c0-1.5,0.1-3.2,0.4-5c0.3-1.8,0.6-3.8,1-5.8h-0.2c-0.8,2.7-1.7,5-2.6,6.9c-0.9,1.9-1.8,3.6-2.7,4.9c-0.9,1.3-1.9,2.4-2.8,3.3 c-0.9,0.8-1.8,1.5-2.7,1.9c-0.9,0.5-1.7,0.8-2.6,0.9c-0.8,0.2-1.6,0.2-2.4,0.2c-1.4,0-2.8-0.3-4.1-0.8c-1.3-0.5-2.3-1.3-3.3-2.4 c-0.9-1.1-1.6-2.6-2.2-4.4c-0.5-1.8-0.8-4-0.8-6.5c0-3.8,0.5-7.4,1.5-10.8c1-3.4,2.5-6.4,4.4-9c2-2.6,4.4-4.6,7.4-6.1 c3-1.5,6.4-2.3,10.4-2.3c1.7,0,3.4,0.1,5.4,0.4C448.7,105.5,450.5,105.9,452.3,106.3z M445.2,108.8c-0.8-0.3-1.8-0.6-2.8-0.8 c-1.1-0.2-2.2-0.2-3.5-0.2c-2.5,0-4.6,0.7-6.4,2.1c-1.8,1.4-3.3,3.2-4.5,5.4c-1.2,2.3-2,4.8-2.6,7.7c-0.6,2.9-0.9,5.8-0.9,8.8 c0,1.7,0.1,3.3,0.3,4.8c0.2,1.5,0.5,2.7,0.9,3.8c0.4,1.1,1,1.9,1.6,2.5s1.5,0.9,2.5,0.9c1.2,0,2.5-0.5,3.7-1.6 c1.2-1.1,2.4-2.5,3.5-4.2c1.1-1.8,2.2-3.8,3.2-6.2c1-2.3,1.8-4.8,2.6-7.4c0.7-2.6,1.3-5.2,1.7-7.9 C445,113.8,445.2,111.2,445.2,108.8z" class="st2"/><path d="M461.2,105.8c3.3,0,6-1,7.9-3c2-2,3.5-4.8,4.5-8.5h3.1l-1.5,11.4h12.9l-0.2,3l-13,0.2c-0.2,2.3-0.5,4.6-0.8,7 c-0.3,2.4-0.5,4.8-0.8,7.2c-0.2,2.4-0.4,4.6-0.6,6.8c-0.2,2.2-0.2,4.2-0.2,6c0,0.8,0,1.6,0.1,2.4c0.1,0.8,0.2,1.6,0.5,2.3 c0.3,0.7,0.6,1.2,1.1,1.7c0.5,0.4,1.2,0.7,2.1,0.7c0.4,0,0.9-0.1,1.4-0.2c0.6-0.1,1.2-0.4,1.8-0.7s1.4-1,2.1-1.7 c0.7-0.8,1.5-1.8,2.3-3.1l2.1,1.4c-0.8,1.4-1.6,2.6-2.4,3.7c-0.8,1-1.7,1.9-2.6,2.6c-0.9,0.7-1.9,1.2-3,1.6 c-1.1,0.4-2.3,0.5-3.6,0.5c-1.6,0-2.9-0.3-4-0.8c-1.1-0.5-1.9-1.2-2.6-2.1c-0.6-0.9-1.1-1.9-1.4-3.1c-0.3-1.2-0.4-2.4-0.4-3.6 c0-1.5,0-3.3,0.1-5.4c0.1-2.1,0.2-4.3,0.4-6.8c0.2-2.5,0.4-5.1,0.7-7.8c0.3-2.8,0.6-5.6,0.9-8.5l-7.2,0.1L461.2,105.8z" class="st2"/><path d="M518,146.9h-4.2l0.4-17.2h3.2c0,2.5,0.4,4.7,1.2,6.5s1.8,3.3,3.2,4.5c1.3,1.2,2.9,2.1,4.8,2.6 c1.8,0.6,3.8,0.9,6,0.9c1.6,0,3.2-0.2,4.7-0.7c1.5-0.5,2.8-1.1,4-2.1c1.1-0.9,2.1-2,2.7-3.3c0.7-1.3,1-2.8,1-4.6 c0-1.9-0.4-3.5-1.2-4.9c-0.8-1.4-1.9-2.6-3.3-3.7c-1.4-1.1-2.9-2.1-4.7-2.9c-1.7-0.9-3.5-1.7-5.3-2.6c-1.8-0.9-3.6-1.8-5.3-2.7 c-1.7-0.9-3.3-2-4.7-3.2c-1.4-1.2-2.5-2.6-3.3-4.2c-0.8-1.6-1.2-3.5-1.2-5.6c0-0.9,0.1-1.9,0.3-3c0.2-1.1,0.5-2.2,1-3.4 c0.5-1.1,1.2-2.2,2-3.3s1.9-2,3.2-2.9c1.3-0.8,2.8-1.5,4.5-2c1.8-0.5,3.8-0.8,6.1-0.8c1,0,2.1,0.1,3.3,0.2c1.2,0.1,2.4,0.4,3.6,0.7 c1.2,0.3,2.4,0.7,3.6,1.3c1.2,0.5,2.3,1.2,3.4,2l-0.1-3.4h4.1l-0.9,17.7H547c0-2-0.3-3.8-0.8-5.7c-0.5-1.8-1.4-3.5-2.5-4.9 c-1.1-1.4-2.5-2.5-4.2-3.4c-1.7-0.9-3.8-1.3-6.1-1.3c-1.7,0-3.3,0.3-4.7,0.8c-1.4,0.6-2.5,1.3-3.5,2.2c-0.9,0.9-1.7,2-2.2,3.2 c-0.5,1.2-0.8,2.5-0.8,3.9c0,1.7,0.4,3.3,1.3,4.5c0.8,1.3,2,2.4,3.3,3.4c1.4,1,3,1.9,4.7,2.8s3.6,1.7,5.4,2.6 c1.8,0.9,3.6,1.8,5.4,2.7c1.8,1,3.3,2.1,4.7,3.4c1.4,1.3,2.5,2.7,3.3,4.4c0.8,1.7,1.3,3.6,1.3,5.8c0,2.4-0.4,4.6-1.3,6.5 c-0.9,2-2.2,3.7-3.9,5.1c-1.7,1.4-3.8,2.6-6.2,3.4c-2.5,0.8-5.3,1.2-8.4,1.2c-1,0-2.2-0.1-3.4-0.2c-1.2-0.1-2.5-0.3-3.7-0.6 c-1.3-0.3-2.5-0.6-3.7-1.1c-1.2-0.4-2.3-1-3.4-1.7L518,146.9z" class="st2"/><path d="M590,114.2c0,1.5-0.4,2.9-1.1,4.1c-0.7,1.2-1.7,2.3-2.9,3.2s-2.6,1.8-4.2,2.5c-1.6,0.7-3.3,1.3-5,1.9 c-1.8,0.5-3.6,1-5.4,1.3c-1.8,0.3-3.6,0.6-5.3,0.8c0,5.1,0.8,8.9,2.3,11.4s3.8,3.8,7,3.8c1.2,0,2.4-0.2,3.6-0.6s2.4-1,3.5-1.8 c1.1-0.8,2.2-1.8,3.3-3c1.1-1.2,2-2.7,2.9-4.4l2.6,1.5c-2.3,4.2-4.8,7.4-7.6,9.3c-2.8,2-6,3-9.7,3c-2.6,0-4.8-0.4-6.7-1.3 c-1.9-0.8-3.4-2-4.7-3.6c-1.2-1.5-2.2-3.4-2.7-5.5c-0.6-2.1-0.9-4.5-0.9-7.2c0-2.1,0.2-4.1,0.5-6.2c0.4-2,0.9-4,1.6-5.8 c0.7-1.8,1.6-3.5,2.7-5.1c1.1-1.6,2.4-2.9,3.8-4.1c1.5-1.1,3.1-2,4.9-2.7c1.8-0.6,3.9-1,6.1-1c1.4,0,2.8,0.2,4.2,0.5 c1.4,0.3,2.6,0.9,3.6,1.6c1.1,0.7,1.9,1.7,2.5,2.9C589.6,111,590,112.5,590,114.2z M577.5,107.7c-1.9,0-3.5,0.5-4.8,1.5 s-2.5,2.3-3.4,3.9c-0.9,1.6-1.6,3.5-2.1,5.6c-0.5,2.1-0.8,4.2-1,6.4c2.1-0.3,4.2-0.7,6.3-1.3c2-0.6,3.9-1.4,5.5-2.3 c1.6-0.9,2.9-2,3.9-3.3c1-1.3,1.5-2.7,1.5-4.2c0-0.9-0.1-1.7-0.4-2.4c-0.2-0.8-0.6-1.4-1.1-2c-0.5-0.6-1.1-1-1.8-1.3 C579.3,107.8,578.5,107.7,577.5,107.7z" class="st2"/><path d="M618.6,126.3c2.8,6.8,4.7,10.8,5.4,12.1c0.8,1.3,1.5,2.3,2.2,2.9c0.7,0.6,1.4,0.9,2,0.9c1.9,0,3.3-2.1,4.1-6.4 l2.3,0.3c-0.2,1.4-0.5,2.8-0.8,4.1c-0.4,1.3-0.8,2.5-1.5,3.5c-0.6,1-1.4,1.9-2.4,2.5s-2.1,0.9-3.4,0.9c-0.9,0-1.7-0.1-2.4-0.3 s-1.4-0.5-2-1c-0.6-0.5-1.2-1.1-1.8-1.9c-0.6-0.8-1.2-1.9-1.9-3.1c-0.6-1.3-1.3-2.8-2.1-4.6c-0.8-1.8-1.6-3.9-2.5-6.3h-0.1 c-1.4,4-2.7,7.1-3.9,9.4s-2.4,4-3.6,5.2c-1.1,1.2-2.3,1.9-3.3,2.2c-1.1,0.3-2.1,0.5-3.1,0.5c-1.6,0-2.8-0.4-3.7-1.1 c-0.9-0.8-1.3-1.8-1.3-3c0-1.2,0.3-2.1,1-2.8c0.6-0.7,1.4-1,2.3-1c0.6,0,1.1,0.1,1.5,0.3c0.4,0.2,0.7,0.5,0.9,0.8 c0.2,0.3,0.4,0.7,0.5,1.1c0.1,0.4,0.2,0.8,0.2,1.1c0.1,0,0.2,0,0.3,0.1c0.1,0,0.2,0,0.3,0c0.7,0,1.5-0.3,2.3-0.9 c0.8-0.6,1.6-1.6,2.5-2.9s1.8-3.1,2.7-5.2c1-2.1,2-4.7,3-7.8c-2.5-6.8-4-10.9-4.6-12.2c-0.6-1.3-1.1-2.3-1.7-2.9 c-0.6-0.6-1.2-0.9-1.9-0.9c-0.5,0-0.9,0.1-1.4,0.4c-0.5,0.2-0.9,0.7-1.3,1.2s-0.7,1.4-0.9,2.5c-0.3,1-0.4,2.4-0.5,3.9l-2.3,0.1 c0-0.7,0-1.6,0.1-2.5c0.1-0.9,0.2-1.9,0.5-2.8c0.2-1,0.6-1.9,0.9-2.8c0.4-0.9,0.9-1.7,1.6-2.5s1.4-1.3,2.3-1.7 c0.9-0.4,1.9-0.7,3.2-0.7c1.4,0,2.6,0.3,3.6,1c0.9,0.7,1.8,1.7,2.5,3.1c0.7,1.3,1.4,3,2,5c0.6,2,1.4,4.3,2.3,6.8h0.1 c1.4-3.5,2.8-6.3,4.2-8.4c1.4-2.1,2.7-3.7,3.9-4.8c1.2-1.1,2.4-1.8,3.4-2.2c1-0.3,1.9-0.5,2.7-0.5c1.4,0,2.5,0.4,3.3,1.1 c0.8,0.8,1.1,1.7,1.1,2.8c0,0.5-0.1,0.9-0.3,1.3c-0.2,0.4-0.4,0.8-0.7,1.1c-0.3,0.3-0.7,0.6-1,0.8c-0.4,0.2-0.8,0.3-1.3,0.3 c-0.6,0-1.1-0.1-1.5-0.3c-0.4-0.2-0.8-0.4-1.1-0.7c-0.3-0.3-0.5-0.5-0.7-0.8c-0.2-0.3-0.3-0.5-0.4-0.7c-0.6,0.1-1.2,0.4-1.9,0.9 c-0.7,0.5-1.5,1.3-2.3,2.4c-0.9,1.1-1.8,2.6-2.8,4.5c-1,1.9-2.1,4.2-3.2,7.1L618.6,126.3z" class="st2"/><path d="M706.7,106.7c0-0.3,0-0.7,0-1c0-0.3,0-0.7,0-1c0-2.1-0.1-3.9-0.4-5.4c-0.3-1.5-0.8-2.8-1.6-3.8 c-0.8-1-1.8-1.8-3-2.3c-1.3-0.5-2.9-0.7-4.8-0.7l-6.9,0.1l-2.6,44.1c-0.1,1.5-0.2,2.8-0.3,3.8c-0.1,1-0.2,1.9-0.3,2.6l6.7-0.3 l-0.2,3.5h-18.7l0.2-2.6c1.3-0.1,2.3-0.3,3.1-0.9c0.8-0.5,1.3-1.2,1.7-2.1c0.4-0.9,0.7-1.9,0.8-3.1c0.1-1.2,0.3-2.5,0.3-3.8 l2.5-41.1l-8.3,0c-1.7,0-3.2,0.3-4.4,0.8c-1.2,0.6-2.2,1.4-3,2.6s-1.4,2.6-1.8,4.4c-0.4,1.8-0.7,3.8-0.8,6.2h-3l1.4-17.1h46.9 l-0.4,17.1H706.7z" class="st2"/><path d="M728.1,113.3c0,1.6-0.2,3.5-0.5,5.6c-0.3,2.1-0.7,4.3-1.1,6.6c-0.4,2.3-0.8,4.7-1.1,7.1 c-0.3,2.4-0.5,4.8-0.5,7c0,1.1,0.2,1.9,0.6,2.5c0.4,0.6,1,0.9,1.9,0.9c0.4,0,0.9-0.1,1.4-0.4c0.5-0.3,1-0.7,1.6-1.3 c0.5-0.6,1-1.4,1.5-2.4c0.5-1,0.9-2.2,1.3-3.6l2.3,0.5c-0.2,1.1-0.6,2.4-1.1,3.7c-0.5,1.3-1.2,2.6-2,3.7c-0.8,1.1-1.8,2.1-2.9,2.9 c-1.1,0.8-2.5,1.1-4,1.1c-4.9,0-7.3-2.5-7.3-7.6c0-2.3,0.2-4.6,0.5-6.9c0.3-2.2,0.7-4.5,1.1-6.7c0.4-2.2,0.8-4.4,1.1-6.6 c0.3-2.2,0.5-4.5,0.5-6.8c0-0.3,0-0.7-0.1-1.1c-0.1-0.4-0.2-0.8-0.3-1.2c-0.2-0.4-0.4-0.7-0.7-0.9c-0.3-0.3-0.7-0.4-1.1-0.4 c-0.4,0-0.9,0.1-1.4,0.4s-1,0.7-1.6,1.3c-0.5,0.6-1.1,1.4-1.6,2.4c-0.5,1-0.9,2.2-1.3,3.6l-2.3-0.5c0.2-0.9,0.5-2.1,1-3.4 c0.5-1.3,1.1-2.6,2-3.8c0.8-1.2,1.8-2.2,3-3c1.2-0.8,2.6-1.2,4.2-1.2c1.1,0,2.1,0.2,3,0.6c0.9,0.4,1.6,1,2.1,1.7 c0.6,0.7,1,1.6,1.3,2.6C728,110.9,728.1,112.1,728.1,113.3z M730.2,92.1c0,0.7-0.1,1.3-0.4,1.9c-0.2,0.6-0.6,1-0.9,1.4 c-0.4,0.4-0.9,0.7-1.4,0.9c-0.5,0.2-1.1,0.3-1.7,0.3c-0.6,0-1.2-0.1-1.7-0.3c-0.5-0.2-1-0.5-1.4-0.9c-0.4-0.4-0.7-0.9-0.9-1.4 c-0.2-0.6-0.3-1.2-0.3-1.9c0-0.7,0.1-1.3,0.4-1.9c0.2-0.6,0.6-1.1,1-1.5c0.4-0.4,0.9-0.7,1.4-0.9c0.5-0.2,1.1-0.3,1.7-0.3 c1.3,0,2.3,0.4,3.1,1.2C729.8,89.5,730.2,90.7,730.2,92.1z" class="st2"/><path d="M751,157.1c-0.1,1.1-0.2,2.3-0.2,3.5c-0.1,1.2-0.2,2.3-0.5,3.2l5.1-0.2v3.3h-15.3v-2.4c1.1,0,2-0.3,2.6-0.9 c0.6-0.6,1.1-1.4,1.4-2.4c0.3-1,0.5-2.2,0.6-3.6c0.1-1.4,0.2-2.9,0.4-4.4c0.2-3.1,0.5-6.1,0.8-9.1c0.3-3,0.5-5.8,0.8-8.5 c0.3-2.7,0.5-5.3,0.7-7.7c0.2-2.4,0.4-4.6,0.6-6.5c0.2-1.9,0.3-3.6,0.4-5c0.1-1.4,0.2-2.4,0.2-3.1c0-0.5,0-1,0-1.6 c0-0.5-0.1-1-0.3-1.4c-0.1-0.4-0.4-0.7-0.7-1s-0.7-0.4-1.2-0.4c-0.4,0-0.9,0.1-1.4,0.4s-1,0.7-1.5,1.3s-1,1.4-1.5,2.4 c-0.5,1-0.9,2.2-1.3,3.6l-2.4-0.5c0.2-0.9,0.5-2.1,1-3.4c0.5-1.3,1.2-2.6,2.1-3.8c0.9-1.2,1.9-2.2,3.1-3c1.2-0.8,2.6-1.2,4.2-1.2 c1.2,0,2.2,0.2,3,0.7s1.4,1.1,1.9,1.9c0.5,0.8,0.8,1.7,1,2.7c0.2,1,0.3,2.1,0.3,3.2c0,1.7-0.1,3.3-0.4,4.9s-0.5,3.1-0.8,4.3h0.3 c1.1-3.7,2.3-6.7,3.4-9c1.2-2.3,2.4-4.1,3.6-5.4c1.2-1.3,2.5-2.1,3.7-2.6s2.5-0.7,3.6-0.7c1.8,0,3.5,0.4,4.8,1.3 c1.4,0.8,2.5,2,3.4,3.4s1.6,3.1,2,5c0.4,1.9,0.7,3.9,0.7,6c0,4-0.5,7.6-1.5,10.8c-1,3.3-2.5,6.1-4.5,8.4c-2,2.3-4.5,4.2-7.5,5.5 s-6.4,1.9-10.3,1.9c-1.3,0-2.6-0.1-3.8-0.2L751,157.1z M752.7,135.8c-0.2,1.2-0.4,2.4-0.5,3.7c-0.1,1.3-0.3,2.6-0.4,4 c0.8,0.3,1.7,0.5,2.4,0.7c0.8,0.2,1.6,0.3,2.5,0.3c1.9,0,3.6-0.3,5.1-1c1.5-0.6,2.8-1.5,4-2.6c1.1-1.1,2.1-2.4,2.9-3.9 c0.8-1.5,1.5-3,2-4.7c0.5-1.6,0.9-3.3,1.1-5.1c0.2-1.8,0.4-3.4,0.4-5.1c0-1.8-0.1-3.6-0.3-5.2c-0.2-1.6-0.5-3-0.9-4.2 c-0.4-1.2-1-2.2-1.7-2.9c-0.7-0.7-1.7-1-2.8-1c-1,0-2,0.4-2.9,1.1c-1,0.7-1.9,1.7-2.8,3s-1.8,2.8-2.6,4.5s-1.6,3.6-2.3,5.6 c-0.7,2-1.3,4.1-1.9,6.3C753.5,131.4,753.1,133.6,752.7,135.8z" class="st2"/><path d="M791.4,140.5c0.2,0.6,0.5,1.1,1,1.6c0.4,0.5,1,0.8,1.6,1.2c0.6,0.3,1.3,0.6,2,0.7s1.4,0.3,2.2,0.3 c2.9,0,5.1-0.7,6.6-2c1.4-1.3,2.2-3.2,2.2-5.7c0-1.4-0.5-2.6-1.4-3.7c-1-1.1-2.2-2.1-3.6-3.1c-1.5-1-3-2-4.7-2.9 c-1.7-0.9-3.3-2-4.7-3c-1.5-1.1-2.7-2.2-3.6-3.5c-1-1.3-1.4-2.7-1.4-4.4c0-1.5,0.3-2.9,1-4.2c0.7-1.3,1.6-2.5,2.8-3.5 c1.2-1,2.7-1.8,4.4-2.4c1.7-0.6,3.6-0.9,5.7-0.9c1.5,0,3,0.2,4.4,0.6c1.4,0.4,2.7,0.9,3.8,1.6c1.1,0.7,2,1.5,2.7,2.5 c0.7,1,1,2.1,1,3.3c0,1.2-0.3,2.1-1,2.8c-0.6,0.7-1.5,1-2.4,1s-1.8-0.3-2.4-1c-0.6-0.7-0.9-1.4-0.9-2.3c0-0.4,0.1-0.8,0.2-1.3 c0.1-0.4,0.3-0.9,0.6-1.3c-0.3-0.9-1-1.7-2-2.3c-1.1-0.6-2.5-0.9-4.3-0.9c-0.9,0-1.8,0.2-2.7,0.5c-0.9,0.3-1.7,0.7-2.4,1.3 c-0.7,0.6-1.3,1.2-1.7,2c-0.4,0.8-0.7,1.7-0.7,2.6c0,1,0.3,1.9,0.8,2.7c0.6,0.8,1.3,1.6,2.3,2.4c0.9,0.7,2,1.5,3.2,2.2 c1.2,0.7,2.4,1.4,3.7,2.2c1.2,0.7,2.5,1.5,3.7,2.3c1.2,0.8,2.3,1.7,3.2,2.7c0.9,1,1.7,2,2.3,3.2s0.8,2.4,0.8,3.9 c0,1.7-0.4,3.3-1.1,4.7c-0.7,1.4-1.8,2.7-3.1,3.7c-1.3,1.1-3,1.9-4.8,2.5c-1.9,0.6-3.9,0.9-6.2,0.9c-1.6,0-3.2-0.2-4.8-0.6 c-1.6-0.4-3-0.9-4.2-1.7c-1.2-0.7-2.2-1.6-2.9-2.7c-0.7-1.1-1.1-2.3-1.1-3.7c0-1.2,0.3-2.1,1-2.9c0.7-0.7,1.5-1.1,2.5-1.1 c1.1,0,1.9,0.4,2.5,1.1c0.6,0.7,0.8,1.5,0.8,2.4c0,0.4,0,0.8-0.1,1.2C791.9,139.6,791.7,140,791.4,140.5z" class="st2"/><path d="M832.5,142.4c-0.1,0.7-0.2,1.4-0.5,2c-0.3,0.6-0.7,1.2-1.1,1.7c-0.5,0.5-1,0.8-1.6,1.1 c-0.6,0.3-1.2,0.4-1.8,0.4c-0.6,0-1.2-0.1-1.7-0.4c-0.5-0.3-1-0.6-1.4-1c-0.4-0.4-0.7-0.9-0.9-1.5c-0.2-0.6-0.4-1.2-0.4-1.9 c0-0.8,0.1-1.5,0.4-2.2c0.3-0.7,0.6-1.3,1.1-1.8s1-0.9,1.6-1.2c0.6-0.3,1.2-0.5,1.9-0.5c1.3,0.1,2.4,0.6,3.2,1.4 C832.1,139.4,832.5,140.7,832.5,142.4z M830,127.7h-3L825.8,94c0-0.7,0.1-1.4,0.3-2.1c0.2-0.7,0.5-1.3,0.9-1.8 c0.4-0.5,0.9-1,1.5-1.3c0.6-0.3,1.3-0.5,2.1-0.5c0.7,0,1.4,0.1,1.9,0.4c0.5,0.3,1,0.6,1.3,1.1c0.3,0.4,0.6,1,0.7,1.5 c0.2,0.6,0.2,1.2,0.2,1.8c0,0.3,0,0.5,0,0.6C834.8,93.8,833.2,105.1,830,127.7z" class="st2"/></g></svg>