<svg xmlns="http://www.w3.org/2000/svg" xmlns:xlink="http://www.w3.org/1999/xlink" x="0" y="0" version="1.1" viewBox="0 0 100 100" xml:space="preserve" style="enable-background:new 0 0 100 100"><style type="text/css">.st0{fill:#ed2d2b}.st1{fill:#951f20}</style><g id="Layer_2"><path d="M95.6,68.5c-0.1-0.7-0.1-1.4-0.2-2c-0.6-4.5-2.3-8.6-5.1-12.2c-5.2-6.7-10.3-13.4-15.5-20 c-7-9.1-14.1-18.2-21.1-27.3c-0.3-0.4-0.7-0.8-1.1-1.2c-1.1-0.9-2.4-1.3-3.8-1.1c-1.3,0.3-2.3,1-3.2,2c-3.6,4.7-7.3,9.4-10.9,14.2 c-7.1,9.2-14.2,18.4-21.3,27.6c-1.5,2-3.1,3.9-4.5,5.9c-2.7,3.7-4.1,7.8-4.5,12.3c0,0.4-0.1,0.9-0.1,1.3c0,0.5,0,1,0,1.5 c0,0.4,0.1,0.8,0.1,1.2c0.4,4.4,1.8,8.4,4.3,12c3.8,5.5,9,9,15.6,10.3c8.2,1.6,15.5-0.5,21.7-6.1c1.4-1.2,2.5-2.6,3.6-4.1 c0,0,0.1-0.1,0.1-0.2c0.2,0.2,0.3,0.5,0.5,0.7c3.9,5.5,9.1,9.1,15.7,10.4c8.3,1.6,15.6-0.6,21.9-6.3c3.8-3.5,6.1-7.8,7.3-12.8 c0.3-1.4,0.5-2.8,0.5-4.3c0-0.1,0-0.2,0.1-0.3c0-0.5,0-1,0-1.5C95.6,68.7,95.6,68.6,95.6,68.5z" class="st0"/></g><g id="Layer_1"><g><path d="M95.6,68.5c-0.1-0.7-0.1-1.4-0.2-2c-0.6-4.5-2.3-8.6-5.1-12.2c-5.2-6.7-10.3-13.4-15.5-20 c-7-9.1-14.1-18.2-21.1-27.3c-0.3-0.4-0.7-0.8-1.1-1.2c-1.1-0.9-2.4-1.3-3.8-1.1c-1.3,0.3-2.3,1-3.2,2c-3.6,4.7-7.3,9.4-10.9,14.2 c-7.1,9.2-14.2,18.4-21.3,27.6c-1.5,2-3.1,3.9-4.5,5.9c-2.7,3.7-4.1,7.8-4.5,12.3c0,0.4-0.1,0.9-0.1,1.3c0,0.5,0,1,0,1.5 c0,0.4,0.1,0.8,0.1,1.2c0.4,4.4,1.8,8.4,4.3,12c3.8,5.5,9,9,15.6,10.3c8.2,1.6,15.5-0.5,21.7-6.1c1.4-1.2,2.5-2.6,3.6-4.1 c0,0,0.1-0.1,0.1-0.2c0.2,0.2,0.3,0.5,0.5,0.7c3.9,5.5,9.1,9.1,15.7,10.4c8.3,1.6,15.6-0.6,21.9-6.3c3.8-3.5,6.1-7.8,7.3-12.8 c0.3-1.4,0.5-2.8,0.5-4.3c0-0.1,0-0.2,0.1-0.3c0-0.5,0-1,0-1.5C95.6,68.7,95.6,68.6,95.6,68.5z M86.2,85.2c-3.3,3.3-7.4,5.4-12,6 c-7,1-13.2-0.9-18.4-5.8C53,83,51.2,80,50,76.6c0-0.1,0-0.1-0.1-0.2c0,0,0,0-0.1-0.1c-0.3,0.7-0.5,1.3-0.9,2 c-3.4,6.7-8.8,10.8-16.2,12.2c-4.7,0.8-9.2,0.1-13.4-2c-6.2-3.2-10.2-8.2-11.6-15C6.3,66.7,7.8,60.5,12,55.1 c6.4-8.3,12.8-16.6,19.2-24.8c5.3-6.9,10.6-13.8,15.9-20.6c0.2-0.3,0.5-0.6,0.7-1C47.9,8.6,48,8.5,48,8.5c1-1.2,2.3-1.2,3.2,0 c1.1,1.4,2.1,2.8,3.2,4.1c5.1,6.6,10.2,13.2,15.3,19.8c5.6,7.3,11.3,14.6,16.9,21.9c1.1,1.4,2.2,2.8,3.1,4.3 c1.8,3.2,2.8,6.6,2.9,10.2C92.9,75.2,90.7,80.7,86.2,85.2z" class="st1"/><path d="M49.6,41.4c0.3-0.6,0.6-1.2,1-1.8c1.3-2.1,3.1-3.7,5.5-4.4c3.6-1.1,7.5,0.3,9.5,3.7c1.8,2.9,2.2,6.2,1.4,9.5 c-0.5,1.8-1.6,3.3-3,4.5c-1.5,1.3-3.1,2.4-4.8,3.4c-2.9,1.7-5.4,3.8-7.6,6.4c-0.8,0.9-1.5,1.8-1.9,2.9c-0.3-0.5-0.6-1.1-1-1.6 c-1.6-2.2-3.6-4.1-5.8-5.7c-1.7-1.1-3.4-2.2-5.1-3.3c-1.3-0.9-2.6-1.8-3.6-3.1c-1.5-1.8-2.3-3.9-2.3-6.2c0-2.5,0.5-4.9,1.9-7 c1.5-2.4,3.7-3.8,6.6-4c2.5-0.2,4.6,0.8,6.4,2.4c1.2,1.1,2.1,2.5,2.8,4C49.5,41.2,49.5,41.3,49.6,41.4z" class="st1"/></g></g></svg>