<?xml version="1.0" encoding="utf-8"?>
<!-- Generator: Adobe Illustrator 21.1.0, SVG Export Plug-In . SVG Version: 6.00 Build 0)  -->
<svg version="1.1" id="Layer_1" xmlns="http://www.w3.org/2000/svg" xmlns:xlink="http://www.w3.org/1999/xlink" x="0px" y="0px"
	 viewBox="0 0 32 32" style="enable-background:new 0 0 32 32;" xml:space="preserve">
<style type="text/css">
	.st0{fill:#010101;}
</style>
<path class="st0" d="M6.9,10.3c-3.1,0-5.6,2.5-5.6,5.6c0,3.1,2.5,5.6,5.6,5.6c1.4,0,2.7-0.5,3.7-1.4l7.6,4.2c-0.5,3.1,1.5,6,4.6,6.5
	c3.1,0.5,6-1.5,6.5-4.6c0.5-3.1-1.5-6-4.6-6.5c-1.7-0.3-3.4,0.2-4.7,1.3l-7.6-4.2c0.1-0.6,0.1-1.3,0-1.9l7.6-4.2
	c2.3,2.1,5.9,1.8,7.9-0.5s1.8-5.9-0.5-7.9c-2.3-2.1-5.9-1.8-7.9,0.5c-0.9,1-1.4,2.4-1.4,3.7c0,0.3,0,0.6,0.1,0.9l-7.6,4.2
	C9.6,10.8,8.2,10.3,6.9,10.3z"/>
</svg>
