<svg version="1" xmlns="http://www.w3.org/2000/svg" width="1920" height="1920" viewBox="0 0 1440.000000 1440.000000"><path d="M701.5 13c-13.9 2.8-29.2 11.1-40.1 21.7-3.9 3.7-11.3 12.4-16.5 19.3-5.2 6.8-10.2 13.4-11.1 14.5-1.5 1.8-17.6 22.6-23.1 29.9-1.2 1.6-4.7 6.1-7.8 10-5.9 7.6-61.1 79.1-64.4 83.5-2.3 3-48 62.3-98 127.1-19.3 25-38.7 50.2-43 56-4.4 5.8-8.4 11-9 11.6-.5.6-2.1 2.6-3.5 4.4-2.5 3.3-12.4 16.1-38.9 50.5-7.7 9.9-27.3 35.3-43.6 56.5-16.3 21.2-32.9 42.8-37 48-9 11.6-22.7 29.3-59.4 77-15.4 20.1-30.5 39.6-33.5 43.5-11.4 14.7-39.1 50.7-51.3 66.5-13 17-16 20.8-35.8 46.4-6.4 8.3-14.3 18.9-17.6 23.8-28.7 42.2-49.4 91.1-59.4 140.3-.9 4.4-1.8 8.8-2 9.7-.4 1.9-3.1 20.8-4 27.8-2.4 19.5-2.4 65.8 0 83 .2 1.4.6 5 .9 8 .4 3 .9 6.7 1.1 8.2.3 1.6.7 4.3 1 6 .5 2.8 2.4 12.8 4.1 21.8.7 3.7 2 8.5 4.4 17.4 9.7 36.1 25.1 71.2 46 105.1 5.1 8.4 17.9 26.9 22.1 32 .9 1.1 5.2 6.3 9.4 11.5 4.3 5.2 15.5 17.2 24.9 26.5 23.5 23.5 46.2 41.4 72.3 57.1 5.9 3.5 11.5 6.9 12.3 7.4 9.4 5.8 38.2 19.2 54 25 18.9 7 49.9 15.8 62 17.5 2.4.4 4.7.8 5 1 .9.6 28.4 4.3 38 5.1 16.3 1.5 68.9.7 76-1.1.8-.2 4-.7 7-1 32.1-3.5 75.4-15.8 109.5-31 60.5-27 116-71.7 155.2-125.1 4.1-5.7 7.9-10.4 8.3-10.4.4 0 2.4 2.7 4.4 5.9 4.2 6.9 22.6 31.6 28.3 37.9 7.6 8.6 9.6 10.8 17.7 19.2 7.9 8.1 16 15.9 23.6 22.5 4.8 4.2 24.1 19.7 26.9 21.5 1.2.8 5.2 3.6 8.7 6.2 21.9 15.8 58 34.4 88.1 45.4 27.4 9.9 56.6 17.2 80.8 20 2.7.3 6.3.7 8 .9 20 2.7 76.6 2.7 90 .1 1.1-.2 4.7-.7 8-1 3.3-.4 6.7-.9 7.5-1.1.8-.2 3.3-.6 5.5-1 2.2-.3 4.7-.7 5.5-1 .8-.2 3.1-.6 5-.9 1.9-.3 6.7-1.2 10.5-2.1 3.9-.9 7.7-1.8 8.5-2 3.9-.8 23.9-6.9 34.1-10.4 60.8-21 117.8-59 161.6-107.8 9-10 8-8.8 14.8-17.3 25.5-31.6 47.7-70.5 61.5-108 6.6-17.9 13.5-41.6 15.5-52.9.3-1.9.7-3.7.9-4 .2-.3.7-2.4 1-4.6.4-2.2.8-4.7 1.1-5.5.2-.8.6-3.3.9-5.5.3-2.2.9-7.2 1.5-11 1.8-12.2 2-14.7 2.8-28 1.2-22.5.8-47.5-1.3-67.5-.7-6.8-3.5-26.4-3.9-27-.2-.3-.6-2.7-.9-5.4-.3-2.6-.8-5.1-1-5.5-.3-.4-.8-2.1-1-3.7-1-5.2-1.4-6.8-3.9-16.4-10.8-40.8-27.4-78.1-50.4-113.3-5.5-8.5-24.3-34.1-29.4-40.2-1-1.1-14.4-18.4-29.9-38.5-15.5-20.1-29.1-37.7-30.3-39.2-1.2-1.5-3.1-3.9-4.2-5.4-1.9-2.5-23.1-30-25.8-33.4-1.7-2.1-12.9-16.7-21.1-27.3-3.7-4.9-7.4-9.6-8.1-10.5-.8-.9-4.9-6.2-9.2-11.7-4.2-5.5-9.8-12.7-12.3-16-2.6-3.3-8.5-11-13.1-17-23.9-30.9-41.1-53.2-42.2-54.5-.7-.8-3.5-4.4-6.2-8-2.7-3.6-5.5-7.2-6.2-8-.7-.8-16.2-20.9-34.5-44.5-18.2-23.7-35.9-46.5-39.2-50.8-3.4-4.4-9.5-12.3-13.6-17.6-4.1-5.4-12-15.6-17.5-22.7s-11.2-14.4-12.7-16.4c-3.8-5.1-66.6-86.2-68.1-88-.7-.8-3.5-4.4-6.2-8-2.7-3.6-5.5-7.2-6.2-8-.7-.8-20.1-26-43.3-56-23.2-30-43.2-55.9-44.4-57.5-6.4-8.1-52.6-67.9-63.1-81.5-15.4-19.9-15.1-19.6-21.4-25.7-10.1-10-24-17.8-37.4-21.2-7.6-2-22.4-2.5-29.2-1.1zm22.3 46.3c.6 0 1.2.4 1.2.7 0 .4 1.4 1.4 3.2 2.1 2.9 1.2 14.8 12 14.8 13.5 0 1.4 3.8 5.3 4.6 4.6.5-.4.6-.3.2.2-.8 1 6.9 11.6 8.5 11.6.6 0 .7.3.4.6-.4.4.6 2.1 2.1 3.9 4.5 5.3 5.8 7 8.6 11.1 1.4 2.1 2.6 3.4 2.6 2.9 0-.6.8.5 1.6 2.2.9 1.8 2 3 2.5 2.7.5-.3.8-.2.7.3-.3.9 1.5 3.5 8.5 12.1 2 2.6 3.7 5 3.7 5.5 0 .4.5.5 1.2.1.6-.4.8-.3.5.3-.3.5.5 2.1 1.9 3.6 1.3 1.4 2.4 3 2.4 3.6 0 .5.4 1.1.8 1.3.5.1 3.1 3.3 5.9 7 2.8 3.7 5.4 6.4 5.8 6 .5-.4.5-.2.2.4-.3.6.7 2.5 2.3 4.3 1.7 1.8 3 3.5 3 3.7 0 .6 6.7 9.3 8.4 10.9.6.5 2.5 3 4.1 5.5 1.7 2.5 4 5.4 5.3 6.6 1.2 1.2 2.2 2.6 2.2 3.2 0 .6.3 1.2.8 1.4.4.1 2.9 3.2 5.7 6.8 5.7 7.5 5.9 7.8 8.3 10.7 1 1.2 2.7 3.4 3.8 4.9 1 1.5 2.7 3.5 3.7 4.6.9 1 1.7 2 1.7 2.3 0 .8 7.7 10.4 8.1 10.2.2-.1.3 0 .2.2-.3.5 13.8 18.6 14.8 18.9.5.2.9.8.9 1.4 0 1.4 3.6 5.8 4.4 5.3.3-.3.4-.2.1.1-.4.7 6.3 9.6 7.8 10.2.4.2.7.9.7 1.5 0 .7 2.1 3.4 4.6 6.2 2.6 2.7 4.6 5.1 4.5 5.3-.5.8 9.8 13 10.4 12.4.5-.4.5-.2.2.4-.3.6.1 2 1.1 3 .9 1 3.3 3.9 5.2 6.4 1.9 2.5 3.8 4.6 4.2 4.8.5.2.8 1 .8 1.8s.4 1.4.8 1.4 1.5 1.3 2.4 2.8c.9 1.5 3.2 4.4 5.2 6.5 1.9 2 3.2 3.7 3 3.7-.3 0 1.6 2.6 4.2 5.7 2.5 3.2 4.9 6.4 5.1 7 .3.7.9 1 1.4.7.5-.3.8-.2.7.3-.3.7 4.6 7.8 6.3 9.3.3.3 1.7 2.2 3.1 4.2 1.3 2.1 2.8 3.5 3.3 3 .5-.4.6-.2.2.3-.3.6.8 2.6 2.4 4.4 1.6 1.9 2.9 3.6 2.9 4 0 .3 1.6 2.3 3.5 4.3s3.5 4.1 3.5 4.7c0 .6.3 1.1.8 1.1.4 0 2 2 3.7 4.5 1.6 2.4 3.3 4.1 3.7 3.9.5-.3.8-.2.7.3-.4 1.7 1.4 4.3 2.5 3.6.6-.3.8-.3.4.2-.7.7 5.7 9.6 7.5 10.3.4.2.7.9.7 1.6 0 .6.9 1.8 2 2.6s2 1.8 2 2.3c0 .9 1.3 2.7 5.2 6.8 1.5 1.7 2.6 3.1 2.5 3.2-.4.5 8.6 11.7 9.4 11.7.5 0 .9.4.9 1 0 1 5.8 8.9 8.5 11.6.8.9 1.5 1.8 1.5 2.2 0 .4 1.5 2.3 3.3 4.2 1.7 2 3.2 3.8 3.2 4.1 0 .6 4.3 6.3 7.2 9.5 1.2 1.3 2 2.4 1.8 2.4-.2 0 .7 1.2 2 2.6 1.4 1.5 2.5 3.1 2.5 3.6s.6.6 1.3.2c.6-.4.9-.4.5.1-.8.9 4 7.6 10.5 14.7 1.4 1.5 2.3 2.8 2.1 3-.2.2 1.4 2.3 3.5 4.6s3.7 4.2 3.5 4.2c-.7 0 9.8 13.4 12 15.3 1.2 1 1.4 1.5.6 1.1-1.1-.5-1-.2.3 1.2 2.2 2.4 11.5 14.1 14.2 17.8 3.2 4.6 8.6 11 9.9 11.8.6.4.7.8.3.8-1 0 6.5 9.5 9.7 12.3 1.2 1 1.5 1.5.7 1.1-1.2-.6 8.5 12.4 13.4 17.8.8 1 1.5 2.1 1.5 2.5 0 .5 2 2.9 4.4 5.5 2.4 2.6 4.2 4.9 3.9 5.2-.3.3.2.8 1.1 1.2.9.3 1.6 1.1 1.6 1.6 0 1.6 4.7 6.8 5.5 6 .4-.4.5-.2.3.4-.3 1.1 3.3 6.1 7.5 10.5.9 1.1 1.4 1.9 1 1.9-.4 0 .4 1.2 1.8 2.7 1.3 1.6 4 4.8 5.9 7.3 5 6.4 6.3 8.1 8.2 10.1.9.9 1.5 1.9 1.3 2.1-.3.2 1.3 2.3 3.4 4.6 2.1 2.3 3.6 4.2 3.3 4.2-.3 0 .7 1.1 2.2 2.5 1.4 1.3 2.6 2.7 2.5 3.1 0 .3.7 1.6 1.7 2.7 1.1 1.2 4 5 6.5 8.4 2.6 3.4 5 5.9 5.4 5.5.4-.4.5-.3.4.3-.4 1.1 10.1 15.5 11.3 15.5.5 0 .8.6.8 1.3 0 .7 1.6 3 3.5 5.1 1.9 2.1 3.5 4.1 3.5 4.5 0 .3 1.4 2 3 3.8 1.7 1.8 3 3.6 3 4 0 .4 1.3 2.2 2.8 3.9 1.5 1.7 3.6 4.4 4.7 5.9 1.1 1.6 3 3.9 4.2 5.2 1.2 1.2 2.9 3.6 3.9 5.2 1 1.7 2.2 2.7 2.7 2.4.6-.3.7-.2.4.4-.3.5.4 2 1.6 3.4 1.2 1.3 4.2 5.1 6.7 8.4 2.4 3.3 5.5 7 6.8 8.2 1.3 1.3 2.1 2.3 1.7 2.3-.3 0 3.7 5.3 8.7 11.9 5.1 6.5 10.4 13.3 11.8 15.1 1.4 1.9 3.3 4.2 4.3 5.2.9 1 1.8 2.1 2 2.5.1.5.6.7 1 .5.5-.1.6.2.3.7-.4.6 1 2.7 3.1 4.8 2.1 2 3.1 3.3 2.3 2.8-.8-.5-.4.5 1 2.2 1.4 1.7 3 2.8 3.5 2.5.6-.3.7-.2.3.3-.4.4.3 2 1.5 3.5 1.2 1.4 3.3 4.1 4.7 6 1.4 1.8 3.1 3.9 3.8 4.6.6.7 1.2 1.6 1.2 2 0 .4 1.1 1.7 2.6 3 1.4 1.3 2.1 2.4 1.7 2.4-.4 0-.3.4.2.8.6.4 3 3.4 5.5 6.7 2.5 3.3 5.3 6.7 6.2 7.6 1 .9 1.8 2.1 1.8 2.8 0 .6.3 1.1.8 1.1.4 0 2.3 2.5 4.2 5.5 1.9 3 3.8 5.5 4.3 5.5.4 0 .7.7.7 1.5s.5 1.5 1 1.5c.6 0 1 .6 1 1.4 0 .8.8 2.1 1.8 2.8.9.7 1.8 2 2 2.8.2.8 1 2.1 1.9 2.7.9.7 1.3 1.3.8 1.3-.4 0-.1.8.7 1.7.9 1 2.7 3.9 4 6.5 1.4 2.6 2.8 4.5 3.2 4.3.3-.3.4-.2.1.2-.4.5 5.1 11.1 6.4 12.3.3.3.7 1 .8 1.6.1.6 2 4.9 4.2 9.5 2.3 4.6 4.1 9 4.1 9.6 0 .7.5 1.3 1.2 1.3.6 0 .9.3.6.6-.4.3.5 3 1.8 6s2.4 6.1 2.4 6.8c0 .7.7 1.9 1.5 2.6.8.7 1.2 1.6.9 2.1-.3.5.1 1.9.8 3.1.7 1.3 1.1 2.6 1.1 2.9-.1.4.7 3.1 1.8 6 1.1 3 2.3 6.7 2.6 8.4.2 1.6.8 3.4 1.3 3.9s.6 1.5.3 2.2c-.3.8-.1 1.4.4 1.4s.9.8 1 1.7c0 1 .4 2.9.8 4.3s.7 3.3.7 4.2c-.1 1 .4 1.8.9 1.8.6 0 .7.4.4 1-.3.5-.1 2.8.5 5 .6 2.3 1.3 5.3 1.5 6.8.2 1.5.7 4 1 5.7 2.3 13.1 3 18.4 4.2 33.5 1.3 17.1.7 53.2-1.2 65.5-.2 1.6-.9 6.6-1.6 11-.6 4.4-1.3 9.3-1.5 11-.3 1.6-.7 4.1-.9 5.5-.2 1.4-.4 2.6-.5 2.7-.2.2-.3.6-.4 1-.8 3.2-1.7 7.2-2.1 9-.3 1.3-.7 3.3-1 4.5-.6 2.9-5.5 20-6.2 21.8-.4.8-.7 1.8-.8 2.2-.2.5-.3.9-.5 1-.1.2-.3 1-.5 1.8s-1 3.4-1.8 5.7c-.9 2.2-1.3 4.4-1 4.7.4.3.2.6-.4.6-.6 0-1.4 1.2-1.9 2.7-1 3.6-.8 3.1-2.8 7.8-2.8 6.5-4.7 10.6-7.8 17.2-1.6 3.5-2.8 6.6-2.8 6.9.1.4-.3 1-.8 1.3-.5.3-2.4 3.5-4.2 7.1-1.8 3.6-4.1 7.7-5.1 9.1-1 1.4-1.9 3.1-2.1 3.9-.2.7-1.1 2.2-2.1 3.2s-1.5 2.3-1.2 2.8c.4.6.2 1-.3 1-.9 0-8.2 10.6-8.2 12 0 .4-.7 1.1-1.6 1.4-.9.4-1.4.9-1.1 1.2.3.3-.2 1.4-1.1 2.3-.9 1-2.4 2.8-3.2 4.1-.8 1.2-1.9 2.8-2.5 3.4-5.1 5.8-12.9 16.3-12.7 17.1.2.5.1.7-.3.3-.4-.4-2.1 1-3.8 3-1.8 2-3.8 4.1-4.5 4.5-.7.5-1 1.3-.6 1.8.3.5 0 .8-.8.7-.7-.2-1.2.3-1 1 .1.6-.1 1.1-.5 1-.5-.2-.9.1-1 .6-.1.5-.6 1.2-1.1 1.5-.9.5-18 16.3-25.4 23.3-1.5 1.4-2.8 2.5-2.8 2.2 0-.5-4.3 3.1-7.9 6.6-1.4 1.4-2.8 2.4-3.1 2.4-1.1-.3-3.9 2.3-3.2 3 .4.4.2.7-.3.5-1.8-.4-4.5 1.3-3.8 2.4.3.5.1.7-.4.4-.6-.4-2.5.6-4.2 2.3-1.8 1.6-3.4 2.9-3.7 2.8-1-.2-8.3 4.7-8.4 5.4 0 .5-.6.8-1.3.8-.7 0-2.4 1-3.7 2.2-1.4 1.3-2.5 2.1-2.5 2 0-.8-5.5 2.2-5.5 3 0 .4-.9.8-2 .8s-2 .4-2 1c0 .5-.7 1-1.5 1s-1.5.5-1.5 1.2c0 .6-.3.8-.7.5-.3-.4-1.3-.1-2.2.7-.9.8-2 1.5-2.6 1.7-1.9.4-18 8.4-18.3 9.2-.2.4-.8.5-1.3.1-.5-.3-.9-.1-.9.4s-.6.9-1.2.9c-.7 0-3.1.8-5.3 1.8-2.2 1-4.4 1.9-5 2-.5.2-2.1.7-3.5 1.3-1.4.5-2.8 1-3.2 1.1-.4.1-3.6 1.3-7 2.7-8.8 3.4-29.9 9.5-33.5 9.7-.7 0-1.3.4-1.3.9s-.3.7-.7.5c-.5-.3-4.6.3-9.3 1.4-4.7 1-10.5 2.1-13 2.4-4.8.6-8.5 1.3-8.5 1.5 0 0-1.8.3-4 .5s-6.9.6-10.5 1c-11.4 1.2-17.1 1.4-34 1.4-19.1.1-34.2-.8-44.4-2.5-1.6-.3-4.8-.7-7-.9-2.3-.2-5.4-.7-7.1-1.1-1.6-.4-4.2-.7-5.7-.8-1.6 0-2.8-.4-2.8-.8s-.8-.7-1.7-.7c-1.8.1-7.6-.8-8-1.2-.8-.5-10-2.2-10.9-1.9-.4.1-1-.2-1.3-.7-.5-.7-7.6-2.9-11.6-3.7-.5-.1-1.5-.5-2.2-.9-.6-.4-2.3-.8-3.7-.9-1.4-.1-2.6-.5-2.6-.9s-1.5-1-3.2-1.4c-3.6-.8-4.5-1.1-5.3-1.5-.3-.1-.8-.3-1.2-.5-.5-.1-1.7-.5-2.8-1-1.1-.4-5.8-2.4-10.5-4.3-4.6-1.9-12.2-5.2-16.7-7.4-4.6-2.1-8.5-3.8-8.8-3.8-.3 0-1.3-.6-2.1-1.5-.9-.8-2-1.3-2.5-1-.5.4-.9.2-.9-.3s-1.4-1.5-3.1-2.2c-1.7-.7-4.7-2.4-6.6-3.7-1.9-1.3-4-2.5-4.6-2.6-.6-.1-2-1-3.1-1.9-1-1-2.3-1.5-2.8-1.2-.4.3-.8.1-.8-.5 0-1.1-5.6-4.4-6.5-3.9-.2.2-1.2-.7-2-2-.9-1.2-2.2-2.2-3-2.2-.7 0-1.5-.4-1.7-.8-.1-.5-2.5-2.3-5.3-4.2-5.8-4-6-4.1-14.9-11.6-3.8-3.1-6.5-5.1-6.1-4.4.5.9.4 1.1-.3.6-.7-.4-1.2-1.3-1.2-1.9-.1-.7-1.7-2.5-3.8-4-4.1-3.1-28.2-26.6-28.2-27.4 0-.3-1.3-1.8-2.8-3.3-1.6-1.5-3.2-3.5-3.5-4.4-.4-1-1.2-1.4-1.7-1.1-.6.4-.9.3-.8-.2.4-1.3-3.8-6.3-4.7-5.5-.3.4-.5.2-.3-.4.3-1-3.7-6.7-7.4-10.5-.9-1-1.5-1.9-1.2-2.1.2-.2-1.1-2-2.8-3.9-1.7-1.9-3.1-3.6-3-3.9.1-.3-.7-1.4-1.6-2.5-1-1.1-1.9-2.5-2.1-3-.7-1.6-7.5-11.9-8.4-12.6-.5-.3-.8-.9-.8-1.3.3-2 0-2.6-1.1-2-.7.5-.8.3-.3-.6.5-.8.1-1.8-1.1-2.7-1-.8-1.7-1.5-1.5-1.6.6-.3-4-9.1-5.1-9.8-.5-.3-.9-.9-.9-1.3.1-1-1.2-4-2.8-6.5-.8-1.3-1.6-3.1-1.7-3.9-.2-.8-.9-1.9-1.6-2.3-.7-.5-1-.9-.5-.9.4 0 0-1.5-1-3.3-.9-1.7-1.8-3.7-1.9-4.2-.1-.6-1-2.8-2-5s-1.9-4.2-1.9-4.5c-.1-.3-.8-2.1-1.6-4-.7-1.9-1.2-3.8-1.1-4.3.1-.4-.2-.7-.8-.7-.6 0-.9-.3-.8-.8.3-1.1-3.4-12.2-4.3-12.8-.8-.5-1.4 1.7-1 3.9 0 .4-.3.7-.8.7s-1.2 1.2-1.6 2.7c-.3 1.5-1.5 4.4-2.5 6.5-1 2.1-1.3 3.5-.7 3.1.7-.3.4.3-.5 1.4-1 1.1-1.8 2.3-1.8 2.7 0 .4-1.8 4.3-4 8.7-2.2 4.3-3.6 7.9-3.2 7.9.4 0-.2.7-1.2 1.5-1.1.8-1.7 1.8-1.3 2.1.3.4-.1 1.3-.9 2.1s-1.2 1.8-.9 2.3c.3.4-.2 1-1 1.4-.8.3-1.5 1-1.5 1.7 0 1.2-11.1 19.7-14.8 24.6-1.3 1.8-2.1 3.3-1.6 3.3s-.2.7-1.4 1.6c-1.2.8-2.2 2.5-2.2 3.6 0 1.2-.3 1.8-.7 1.5-.7-.8-3.9 3.4-3.5 4.5.1.5-.2.8-.7.8-.7 0-9.1 10.5-9.1 11.3 0 .2-2.7 3.2-5.9 6.7-3.3 3.5-5.7 6.8-5.5 7.2.3.5 0 .7-.7.6-.7-.2-1.8.7-2.4 2-.7 1.3-1.5 2.3-1.9 2.3-.3-.1-.5 0-.4.1.5.6-22.2 22-25.9 24.5-1.3.8-2 2-1.6 2.6.3.6.1.7-.5.3-.7-.4-1.2-.3-1.2.2s-.9 1.2-2.1 1.5c-1.2.3-1.8 1-1.4 1.6.3.6 0 1.1-.8 1.1s-2.9 1.3-4.6 2.9c-1.7 1.6-3.1 2.7-3.1 2.5 0-.3-1 .4-2.2 1.6-1.2 1.1-2.6 2-3 2-.5 0-.6.5-.3 1 .4.6.3.9-.2.8-1.4-.4-19.2 11.9-18.5 12.8.4.4.2.4-.4.1-.7-.4-2.2.1-3.5 1.1-1.3 1-4.4 3-6.9 4.3-2.5 1.3-4.7 2.6-5 3-.3.3-2.1 1.2-4 2.1-1.9.9-5.2 2.8-7.3 4.3-2.1 1.4-3.6 2.1-3.2 1.5.6-.9-6.4 2.7-7.5 4-.3.3-.9.5-1.5.6-2.2.1-7.5 2.6-7.5 3.5 0 .5-.3.8-.7.8-2.2-.4-4.3.3-5.7 1.7-.9.8-1.6 1.3-1.6.9 0-.3-.6-.3-1.2.2-.7.4-1.7.8-2.3.9-.5.2-5.9 2.1-12 4.3-6 2.2-11.8 4.1-12.7 4.1-1 0-1.8.5-1.8 1.1 0 .5-.4.8-.9.5-.5-.4-2.2-.1-3.8.5-1.5.6-3.5 1.2-4.3 1.4-.8.2-5.1 1.2-9.5 2.3-10.4 2.6-23.4 5.2-33.7 6.7-2.1.3-5.4.7-7.4 1-9.6 1.4-20.8 1.9-41.4 1.8-19.1 0-38.5-.7-38.5-1.3 0-.1-1.3-.3-3-.4-3.2-.3-12.6-1.6-16-2.2-1.1-.3-3.6-.7-5.5-1-1.9-.3-5.1-.9-7-1.4-1.9-.5-5.1-1.1-7-1.4-1.9-.3-6.5-1.4-10.3-2.5-3.7-1.1-7.1-2.1-7.5-2.2-.4-.1-1.1-.3-1.7-.5-.5-.2-3-.9-5.5-1.5-5.7-1.6-5-1.4-8.5-2.8-1.6-.7-3.8-1.3-4.7-1.4-1-.1-1.8-.5-1.8-.9s-.3-.7-.7-.6c-.9.3-9-2.6-15.3-5.4-2.5-1.2-5.1-2.1-5.7-2.1-.7 0-1.3-.4-1.3-.9 0-.4-.5-.8-1.1-.8-.6 0-3.3-1.1-5.9-2.4-2.7-1.3-5.1-2.2-5.4-1.9-.3.4-.6.1-.6-.6s-.4-1-.9-.7c-.5.3-1.4-.1-2.1-.9-.7-.8-1.8-1.5-2.4-1.5-.6 0-2.9-1.2-4.9-2.6-2.1-1.4-4.1-2.3-4.4-2-.3.2-1.4-.4-2.6-1.5-1.1-1-2.7-1.9-3.4-1.9-.7 0-1.3-.4-1.3-.9s-1-1.3-2.2-1.7c-1.3-.4-2.5-.9-2.8-1.3-.8-1-4.4-3.1-6.2-3.7-1-.4-1.8-1.1-1.8-1.6s-.4-.7-.9-.4c-.5.3-1.1-.1-1.5-.9-.3-.8-1.2-1.5-2.1-1.5-.8 0-1.5-.5-1.5-1 0-.6-.7-1-1.5-1s-1.5-.5-1.5-1.2c0-.6-.3-.9-.6-.6-.3.3-1.7-.5-3.1-1.8-1.4-1.3-3.1-2.1-3.7-1.7-.6.3-.8.3-.4-.2.7-.7-3.2-4.5-4.6-4.5-.3 0-2-1.2-3.7-2.8-1.7-1.5-3.6-2.6-4.1-2.4-.5.1-.7-.2-.3-.8.3-.5.2-1-.2-1-.5 0-2.2-1.2-4-2.8-4.3-3.8-7.7-6.6-8.2-6.7-1.2-.1-28.3-28-34.2-35.2-1.5-1.8-3-2.9-3.4-2.5-.4.4-.5.2-.3-.3.4-1.5-2.7-5.6-3.7-4.7-.5.4-.6.2-.2-.4.3-.5-.9-2.7-2.8-4.7s-3.1-3.7-2.8-3.7c.3 0-1-1.9-2.9-4.2-1.8-2.4-4.7-6.3-6.3-8.8-1.7-2.5-3.6-4.9-4.3-5.3-.7-.5-1-1.2-.7-1.6.2-.5-.2-1.4-1-2.1-.8-.7-1.5-1.9-1.5-2.6 0-.8-.3-1.4-.8-1.4-.4 0-1.3-1.3-2-2.8-.6-1.6-2.1-3.8-3.2-5-1.2-1.2-1.8-2.2-1.5-2.2.3 0-.1-1.4-1-3-.9-1.7-2.1-3-2.7-3-.6 0-.9-.3-.5-.6.7-.8-3.1-8.6-4.7-9.6-.6-.4-.8-.8-.3-.8.9 0-3.2-8.2-4.5-9.1-.5-.3-.9-.9-.9-1.3.3-2.2-.1-3.6-1.4-5-.9-.8-1.5-1.7-1.3-1.8.5-.7-3.7-10.8-4.5-10.8-.4 0-.6-.4-.3-.8.3-.5-.1-2-.9-3.5s-1.2-2.7-.9-2.7c.2 0-.3-1.7-1.2-3.8-.8-2-1.7-4.5-1.9-5.6-.3-1-.9-2.4-1.5-3-.5-.7-.7-1.5-.4-1.9.3-.3 0-1.6-.7-2.9-.7-1.2-1.3-3-1.4-3.8-.1-.8-1-4.2-1.9-7.5-1-3.3-2-6.8-2.2-7.8-.2-.9-.6-2.7-.9-4-.3-1.2-.8-3.5-1.1-5.1-.2-1.6-.7-3.3-.9-3.7-.3-.4-.7-2.2-.9-4-.3-1.9-1.2-7.7-2-12.9-2-12.6-2.5-16.9-3.3-27-.8-9.7-.7-46.3.1-56 .6-6.3.8-8.2 2.1-18 .6-4.7 2.5-16.8 2.9-18.5.4-1.3 1.6-7.5 2.1-10 .2-1.1.4-2 .6-2 .1 0 .3-.9.4-2 .2-1.1 1.2-5.4 2.4-9.5s2.3-8.4 2.4-9.5c.1-1.1.4-2.2.7-2.5.3-.3 2.2-5.8 4.4-12.2 2.1-6.5 4.5-12.9 5.2-14.4.8-1.4 1.2-3 .9-3.4-.3-.5 0-1 .5-1.2.6-.2 1.2-1.3 1.3-2.5 0-1.2.4-2 .8-1.7.7.4 2.4-4.4 2.1-5.9-.1-.4.3-.7.9-.7.6 0 .9-.7.5-1.5-.3-.8-.1-1.5.3-1.5.5 0 1.7-2 2.8-4.5 1-2.5 2.2-4.5 2.6-4.5.5 0 .6-.4.2-.9-.3-.5.2-1.7 1.1-2.5.8-.9 1.3-1.6 1-1.6-.4 0 .5-1.8 1.9-4s2.2-4 1.8-4c-.5 0 0-.5 1-1.1.9-.5 1.7-1.9 1.7-2.9 0-1.1.3-2 .8-2 .4 0 1.6-1.7 2.7-3.8 2.9-5.4 17.2-26.6 20.5-30.2 2.8-3.1 4.9-5.9 7.6-10 1.5-2.2 3-4 3.3-4 .4 0 1.5-1.3 2.4-3 1-1.6 2.3-3.5 3-4.3 4-4.4 6-7 4.7-6.2-.9.6-.2-.2 1.5-1.7 1.6-1.5 2.6-2.8 2.1-2.8-.6 0-.3-.6.5-1.3 2.6-2.1 8.8-10.4 8.4-11.1-.3-.3-.2-.4.1-.1.6.3 5.1-5.2 11.9-14.6 1.1-1.5 5.8-7.5 10.5-13.4s9-11.7 9.7-12.9c.7-1.1 2-2.6 2.9-3.3 1-.7 1.4-1.3 1-1.3-.5 0 .3-1.2 1.7-2.6 1.5-1.5 2.4-3.1 2-3.7-.3-.6-.1-.7.5-.3.7.4 1.2.3 1.2-.3 0-.5.6-1.6 1.3-2.3 3.2-3.3 7.6-9.6 7.2-10.2-.3-.3-.2-.4.1-.1.4.2 1.9-1.2 3.5-3.3 1.6-2 3.7-4.6 4.6-5.6 1.3-1.4 1.4-1.7.3-1.2-.8.4-.6-.1.6-1.1 1.1-1 4.3-4.7 6.9-8.3 2.7-3.6 6.4-8.3 8.2-10.4 1.8-2.1 3-4.3 2.6-4.9-.3-.6-.1-.7.6-.3.7.5 1.6-.4 2.4-2.3.7-1.7 1.6-2.8 2-2.4.4.3.7-.1.7-.9 0-.9.7-1.9 1.6-2.2.8-.3 1.3-1 1-1.5-.3-.5 0-1.1.8-1.4.8-.3 2.9-2.7 4.7-5.4 1.8-2.6 3.5-5 3.8-5.3 1.4-1.2 9.6-12.4 9.6-13.1 0-.4.4-1.1.9-1.6s.6-.2.2.7c-.4.8-.1.7.6-.4 1.2-1.6 3.3-4.5 8.6-11.4.9-1.2 2.2-2.8 2.7-3.5 3.9-4.5 11.5-15 11.5-15.8 0-.6.5-.7 1-.4.6.3 1 .2 1-.3 0-.6 2.1-3.6 4.7-6.8 2.6-3.2 4.1-5.4 3.3-5-.8.4-.6-.1.6-1.1 3.3-2.9 9.4-10.9 8.9-11.6-.3-.4-.2-.5.1-.3.4.3 2.7-2.3 5.2-5.7 2.6-3.4 5.7-7.3 6.9-8.6 1.2-1.4 2-2.8 1.8-3.2-.3-.4.1-.9.9-1.2.8-.3 2.9-2.7 4.7-5.4 1.8-2.6 4.6-6.2 6.1-7.8 1.5-1.7 2.8-3.5 2.8-4.1 0-.7.7-1.5 1.6-1.8.8-.3 1.2-1 .9-1.6-.3-.5-.2-1 .4-1 .5 0 2.6-2.4 4.7-5.3 2.1-2.8 4.1-5.4 4.4-5.7 1.9-1.6 10.5-13.6 10.2-14.3-.1-.5.2-.6.7-.3.9.6 2.6-2.2 2.3-3.7-.1-.4.2-.7.6-.7.9 0 10-11.3 10.4-12.8.1-.4 1.1-1.5 2.2-2.4 1.2-1 1.7-1.7 1.2-1.8-.5 0 .3-.9 1.8-2.1 1.4-1.1 2.6-2.5 2.6-3s.9-1.9 1.9-3.1c1.1-1.3 3.1-3.6 4.5-5.2 1.4-1.7 2.2-3.4 1.9-3.9-.3-.6-.1-.7.4-.4 1 .7 2.8-2 2.5-3.6-.1-.4.4-.7 1.1-.7.6 0 2.7-2.2 4.4-4.8 1.8-2.6 4.2-5.8 5.3-7 1.2-1.2 1.7-2.2 1.3-2.2-.4 0 .2-.7 1.3-1.5 1-.8 1.6-1.5 1.3-1.5-.4 0 1.1-1.9 3.2-4.2 2.2-2.4 3.9-4.6 3.9-5 0-.4 1-1.8 2.3-3.2 1.2-1.3 3.1-3.7 4.2-5.2s2.5-3.2 3-3.8c3.7-4.2 4.9-5.9 3.5-5.2-.8.5-.1-.3 1.5-1.8 1.7-1.4 2.7-2.5 2.3-2.6-.4 0 .3-1 1.5-2.3 1.2-1.3 4.7-5.6 7.7-9.6s6.3-8 7.3-8.9c.9-.9 1.7-2.2 1.7-2.8 0-.7.3-1.4.8-1.6 1.8-.8 14-17.6 13.4-18.4-.4-.5-.3-.6.2-.2.8.7 4.5-3.2 3.9-3.9-.2-.2.7-1.3 2-2.6 3.3-3.4 6.7-7.7 6.2-7.7-.2 0 .9-1.4 2.5-3.2 1.6-1.7 2.6-3.6 2.3-4.2-.3-.6-.3-.8.2-.4.9.8 4.2-3.1 3.7-4.5-.1-.4.2-.7.6-.7.4 0 2.5-2.1 4.7-4.7 2.1-2.6 3.3-4.3 2.5-3.9-.8.4-.6-.1.5-1.1 2.4-2.1 9.8-11.3 9.2-11.3-.3 0 1-1.6 2.9-3.7 1.8-2 3-4.1 2.7-4.6-.3-.6-.1-.7.4-.4 1.1.7 2.8-2 2.4-3.6-.1-.5.3-.6.9-.2.5.3 1 .3 1-.2 0-.4 1.1-2.1 2.5-3.7s2.5-3.6 2.5-4.4c0-.9.3-1.2.6-.9.7.7 4.4-3.5 4.4-5 0-.4 1.4-2.1 3-3.7s2.7-3.3 2.4-3.8c-.3-.5-.2-.7.3-.6.4.2.9 0 1.1-.4.1-.4 1.6-2.2 3.2-3.9 1.6-1.8 2.7-3.6 2.4-4.1-.3-.4-.1-.8.4-.8s2.9-2.6 5.3-5.8c2.4-3.1 4.8-6.2 5.4-6.8.5-.6 2.1-2.7 3.5-4.7s2.8-3.7 3.3-3.7c.4 0 .7-.7.7-1.5s.5-1.5 1-1.5c.6 0 1-.7 1-1.6 0-.8.5-1.2 1-.9.6.3 1 .2 1-.3 0-1.1 4.7-7.4 8.5-11.5 1.5-1.5 2.3-2.7 1.8-2.7-.4 0-.3-.4.2-.8 1.5-1 7.5-8.8 7.2-9.3-.1-.2 0-.3.2-.2.4.3 3.5-3.8 3.6-4.6 0-.2 1.4-2 3.2-3.9 1.8-1.9 2.9-4 2.6-4.6-.3-.6-.3-.8.2-.4.7.7 5.4-4.2 4.7-5-.2-.2.3-.9 1.1-1.5.7-.7 2.9-3.2 4.8-5.7 4.6-6.1 5.1-6.6 10.3-13.3 2.6-3.1 4.4-5.7 4.2-5.7-.2 0 1.2-1.7 3-3.7 1.9-2 3.4-4.1 3.4-4.5 0-.5 1.2-2 2.8-3.4 1.5-1.4 2-2.2 1.2-1.8-.8.4 0-.7 1.8-2.5 1.7-1.8 3.2-3.9 3.2-4.7 0-.9.4-1.3.9-1 .8.5 2.3-1.6 2.5-3.6.1-.3.5-1 1-1.5s.6-.3.2.4c-1.7 3 .4.9 3-3 1.6-2.3 3.7-5.1 4.6-6.1 1-1 1.4-2.4 1.1-3-.3-.6-.3-.8.1-.4.5.4 2.4-1.4 4.4-4 1.9-2.6 3.9-4.9 4.4-5 .4-.2.8-.8.8-1.3s.6-1.7 1.4-2.6c.8-1 3.1-3.8 5.1-6.3 2-2.5 4.3-5.3 5.1-6.3.7-.9 1.1-1.7.8-1.7-.4 0 .4-.9 1.7-2 1.3-1 2-1.9 1.5-2-.4 0 .2-.9 1.5-2 1.3-1 2-1.9 1.6-2-.4 0 .3-1.1 1.7-2.4 1.5-1.3 2.6-2.8 2.6-3.4 0-.5.7-1.3 1.6-1.6.8-.3 1.2-1 .9-1.6-.3-.5-.2-1 .2-1 .5 0 3.4-3.2 6.4-7.2 2.9-3.9 5.9-7.6 6.4-8.2.6-.6 2.3-2.9 4-5.1 1.6-2.2 3.5-4.6 4.2-5.3.7-.7 1.3-1.6 1.3-2 0-.4 2.1-3 4.5-5.7 2.5-2.8 4.5-5.4 4.5-5.8 0-.5.4-.6.9-.3s1.5-.1 2.2-1c3.5-4.3 14.3-7.5 20.9-6.1 2.5.5 5.1.9 5.8 1z"/><path d="M560.5 485.9c-.2.2-2.1.5-4.2.7-3.6.4-7.2 1-8.3 1.4-.3.1-.8.2-1.2.1-.9-.1-11.1 3-12.3 3.7-.5.4-1.9.8-3 .9-3.7.6-19.5 8.3-19.5 9.5 0 .5-.5.6-1.1.2-.6-.3-1.4-.3-1.8.2-.3.5-3.7 3-7.6 5.6-3.8 2.6-10 7.5-13.7 11-3.8 3.5-6.8 6.2-6.8 5.9 0-.2-1 .9-2.2 2.5-1.2 1.6-2.5 3.1-2.8 3.4-2 1.7-8 9.9-8 10.9 0 .6-.4 1.1-.9 1.1-1 0-5.7 7.1-5.4 8.2.1.3-.4 1.2-1.2 1.8-.8.7-1.5 1.8-1.5 2.5 0 .8-.4 1.5-.8 1.7-1.3.5-12.7 24.8-11.6 24.8.2 0-.2 1.2-1 2.7-1.4 2.8-5.1 15.5-6 20.5-.2 1.5-.7 3.1-.9 3.5-.3.5-.8 2.6-1.1 4.8-1.5 9.2-1.8 10.8-2.1 12.7-1.1 5.4-1.9 21-1.8 34.8.1 14.3.5 19.3 1.8 26 .3 1.4.8 3.8 1.1 5.3.8 4.5 3.1 12.8 4.7 17.2.8 2.2 2 5.6 2.7 7.5.8 1.9 1.8 3.8 2.4 4.2.6.4.8.8.4.8-1 0 6.9 15.1 8.5 16.5.7.6 1.3 1.7 1.5 2.4.2.8 1.3 2.3 2.4 3.3 1.2 1 1.8 1.8 1.4 1.8-1.5 0 9.3 12.8 20.2 23.9 6.1 6.4 11.2 11.2 11.2 10.9 0-.4 1.5.7 3.4 2.5 4.3 4 6.4 5.7 7.1 5.7.3 0 1.9 1.3 3.7 3 1.7 1.6 3.4 3 3.9 3 .4 0 1.4.6 2.1 1.2 2.9 2.8 8.8 6.9 8.8 6.1 0-.4.5 0 1.1 1 .6.9 1.4 1.5 2 1.2.5-.4.9-.2.9.3s1.8 2.1 4 3.6c2.2 1.4 4 2.4 4 2.1 0-.3 1.2.6 2.7 2 1.5 1.4 3.1 2.5 3.5 2.5.4 0 2.7 1.3 5.1 3 2.5 1.6 4.9 3 5.5 3 .6 0 1.2.4 1.4.9.2.5 1 1.1 1.8 1.3.8.2 2.6 1.3 4 2.5 1.3 1.3 2.9 2.3 3.3 2.3.5 0 2.2.9 3.8 2.1 1.6 1.1 2.9 1.8 2.9 1.4 0-.3 1 .3 2.2 1.5 1.2 1.1 2.5 2 3 2h1.3c.3 0 1.3.7 2.3 1.6 2.6 2.4 15.5 10.6 17 10.8.8.1 1.7.7 2 1.2.4.5 4.1 3.1 8.2 5.9 4.1 2.7 7.7 5.3 7.8 5.7.2.5 1 .8 1.7.8s1.6.7 1.9 1.6c.3.8 1 1.2 1.6.9.5-.3 1-.2 1 .3s2.1 2.4 4.8 4.3c5.4 3.8 5.8 4.1 9.3 7.2 10.6 9.2 14.4 12.2 15.1 12 .4-.2.8.2.8.8 0 .6.7 1.7 1.5 2.5.8.9 1.5 1.4 1.5 1.1 0-1.7 32.4 32.7 39.3 41.7 1.2 1.6 3 3.7 4 4.7.9 1.1 1.7 2.3 1.7 2.9 0 .5.3 1 .8 1 .4 0 1.6 1.6 2.6 3.5 1.1 1.9 2.3 3.5 2.8 3.5.4 0 .8.6.8 1.3 0 .7 1 2.4 2.3 3.7 1.2 1.4 2.3 3.2 2.5 4 .2.8.8 2 1.5 2.5.7.6 1.3 1.5 1.4 2 .4 2.3 5.3 11.9 5.3 10.4 0-1.9 6-14.3 7.2-14.7.4-.2.8-.8.8-1.2 0-1.1 5.8-9.8 7.1-10.5.5-.4.7-1.1.4-1.6-.4-.5-.2-.9.3-.9s2.9-2.6 5.2-5.8c2.4-3.1 4.9-6.4 5.7-7.2 7.1-7.9 11.8-13.4 11.8-14.1 0-.4.4-1.1.9-1.6.6-.5.6-.2.1.7-.5.8 1.8-1.2 5.1-4.5 3.2-3.3 5.8-6.3 5.6-6.8-.2-.4.4-.7 1.3-.7s1.5-.3 1.3-.8c-.2-.4.9-1.9 2.4-3.4s2.8-2.6 2.8-2.4c0 .1 3.5-3 7.8-7.1 4.2-4 8-7.3 8.5-7.3.4 0 .7-.7.7-1.6 0-.8.4-1.3.9-1 .5.4 1.1.3 1.3-.1.1-.5 3-3 6.3-5.8 3.3-2.7 7.1-6 8.5-7.2 1.4-1.3 2.8-2.3 3.1-2.3.3 0 1.7-1 3.1-2.3 3.2-2.9 6.9-5.7 15.3-11.7 3.9-2.7 7.7-5.5 8.5-6.2.8-.7 1.8-1.3 2.2-1.3.4 0 1.8-.9 3-2 1.3-1.1 2.6-2 3-2 .4 0 1.6-.7 2.7-1.6 1-1 2.7-2 3.7-2.3 1.1-.3 3.1-1.7 4.7-3.1 1.5-1.4 2.7-2.3 2.7-2 0 .5 4.9-2.3 6-3.5.7-.7 4-2.7 7.8-4.6 1.7-.9 3.2-2.1 3.2-2.6s.5-.6 1-.3c.6.3 1 .2 1-.2 0-.5 1.7-1.7 3.8-2.8 2-1.1 4.5-2.8 5.5-3.9.9-1 1.7-1.6 1.7-1.2 0 .4 1.3-.1 2.9-1 1.7-1 2.8-2.1 2.5-2.6-.3-.5-.1-.7.4-.6 1.3.4 10.2-5.2 10.2-6.4 0-.5.4-.7.9-.3.6.3 1.4-.3 2-1.2.6-1 1.1-1.5 1.1-1.1 0 1.4 24-17 24-18.3 0-.5.6-.9 1.4-.9.8 0 2.7-1.5 4.4-3.4 1.7-1.9 3.2-3.3 3.4-3.2.1.1 3.8-3.3 8-7.6s7.4-7.8 7.1-7.8c-.3 0 .5-.9 1.8-2.1 1.3-1.1 1.7-1.7.9-1.3-.8.5.1-.8 2.1-2.7 3.4-3.5 12.4-15.9 11.4-15.9-.3 0 .2-.8 1-1.8.8-.9 1.5-2.1 1.4-2.6 0-.5.4-1.2.9-1.5 1.3-.9 6.4-11.1 5.5-11.1-.5 0-.3-.4.3-.8 1.6-1 7.4-18.3 9-26.7.2-1.1.6-3.1.9-4.5 2.6-13 2.6-38.2 0-60-.3-2.5-.7-5.4-.9-6.5-.3-1.1-.8-4.1-1.2-6.8-.3-2.6-1-5-1.5-5.3-.4-.2-.6-1.1-.3-1.9.3-.8.2-2-.2-2.7-.5-.7-1-2-1.2-2.8-.1-.8-.4-2-.6-2.5-.1-.6-.6-2.7-1.1-4.8-.4-2-1.2-3.7-1.8-3.7-.6 0-.8-.3-.4-.6.5-.6-1.3-6.7-3.3-10.9-.5-1.1-1.9-4.4-3.1-7.3-1.2-2.8-2.5-5.2-3-5.2s-.8-.3-.7-.8c.4-1.2-2.4-7.2-3.3-7.2-.5 0-.9-.7-.9-1.5s-.5-1.5-1.2-1.5c-.6 0-.9-.3-.5-.6.5-.5-5.1-9.4-9.8-15.4-8.7-11-34.9-33.3-39.2-33.3-.7 0-1.3-.4-1.3-.9s-.4-.6-1-.3c-.5.3-1 .2-1-.3 0-1.2-15.8-8.4-17-7.7-.4.3-1 0-1.2-.6-.2-.6-1.6-1.2-3.1-1.2-1.5-.1-2.7-.6-2.7-1.1 0-.5-.3-.6-.7-.3-.3.4-1.2.2-2-.4-.7-.6-1.3-.9-1.3-.6 0 .3-1.5.1-3.2-.4-1.8-.5-5.3-1.2-7.8-1.5-2.5-.3-5.8-.8-7.5-1.1-4.3-.8-21-.8-27.5 0-8.1 1-17.3 2.8-18.5 3.5-.5.4-1.4.7-2 .7-3.4.3-8.5 1.9-8.5 2.7 0 .5-.4.7-.9.3-1.1-.6-22.6 8.8-24.1 10.6-.3.3-2 1.4-3.7 2.3-1.8.9-3.3 2.1-3.3 2.7 0 .6-.4.8-.9.5-.5-.3-2 .5-3.4 1.8s-2.8 2.1-3.1 1.9c-.3-.3-.8.2-1.2 1.1-.3.9-1 1.6-1.5 1.6-2.1 0-21.9 18.9-21.9 20.9 0 .7-.5.9-1 .6-.6-.3-1.3.1-1.7 1-.3 1-1.6 2.8-2.8 4.1-1.2 1.3-3.5 4.3-5.1 6.6-1.6 2.4-3.2 4.4-3.6 4.6-.5.2-.8 1-.8 1.8s-.4 1.4-.8 1.4c-.5 0-1.6 1.5-2.5 3.2-1 1.8-2.7 4.9-3.8 6.8-5.7 9.6-7.8 13.8-7.2 14.3.3.4.2.7-.4.7-.5 0-1.6 1.8-2.3 3.9-1.3 4.1-4 4.7-4 1 0-1-.5-1.9-1-1.9-.6 0-.9-.3-.8-.8.4-1.4-1.4-5.2-2.4-5.2-.6 0-.9-.3-.5-.6.7-.7-6.1-13.7-7.5-14.2-.4-.2-.6-.8-.3-1.2.3-.5-.5-1.9-1.8-3.2-2.3-2.3-2.7-3-2.7-4.9 0-.5-.5-.7-1.2-.3-.6.4-.8.3-.5-.3.4-.6-.2-2.1-1.3-3.3-1.1-1.3-2-2.6-2-2.9 0-.3-1-1.7-2.3-3.1-1.2-1.4-3-3.6-3.9-4.9-3.7-5.3-14.2-16-15.1-15.4-.6.3-.7.2-.4-.4.6-1-13.4-13.3-15.2-13.3-.6 0-1.1-.4-1.1-1 0-.5-1.4-1.7-3.2-2.6-1.8-.9-3.8-2.3-4.6-3-.7-.8-2-1.4-2.8-1.4-.8 0-1.4-.4-1.4-.9s-.8-1.1-1.7-1.4c-1-.3-2.9-1.2-4.3-2.1-3-1.7-6.2-3-7.2-2.8-.5.1-.8-.2-.8-.6 0-.6-8-4.1-11-4.8-.3 0-1.2-.4-2-.7-.8-.4-2.4-.8-3.5-1-1.1-.2-2.7-.7-3.5-1-1.3-.5-5.7-1.6-8.6-2.2-7-1.5-35.8-2.8-36.9-1.6z"/></svg>